<?xml version="1.0" encoding="UTF-8"?>
<!-- Generator: Adobe Illustrator 24.1.2, SVG Export Plug-In . SVG Version: 6.00 Build 0)  -->
<svg version="1.1" id="Ebene_1" xmlns="http://www.w3.org/2000/svg" xmlns:xlink="http://www.w3.org/1999/xlink" x="0px" y="0px" viewBox="0 0 737.88 380.63" style="enable-background:new 0 0 737.88 380.63;" xml:space="preserve">
<style type="text/css">
	.st0{fill:#494C5C;}
	.st1{fill:#009CD3;}
</style>
<g>
	<g>
		<g>
			<path class="st0" d="M55.45,133.65l17.81,31.66c3.76,6.33,5.05,6.98,9.27,6.98v2.94h-12.3L50.4,139.43l-6.7,8.54v17.07     c0,6.7,0.46,7.25,6.79,7.25v2.94H28.74v-2.94c6.7,0,7.25-0.55,7.25-7.16v-47.73c0-6.61-0.55-7.16-7.25-7.16v-2.94h21.39v2.94     c-5.97,0-6.42,0.64-6.42,7.16v23.96h0.28l18.17-23.4c2.39-3.12,3.76-5.05,3.76-6.24c0-1.1-1.28-1.47-4.13-1.47v-2.94h16.89v2.94     c-3.67,0-4.96,0.46-8.26,4.5L55.45,133.65z"/>
			<path class="st0" d="M85.35,152.01c0-12.39,5.51-23.96,21.48-23.96c14.13,0,21.39,9.18,21.39,23.96     c0,13.22-4.68,24.32-21.39,24.32C92.6,176.33,85.35,167.98,85.35,152.01z M92.87,152.1c0,18.45,8.17,21.11,13.86,21.11     c11.38,0,13.86-11.01,13.86-21.11c0-13.4-4.31-20.83-13.86-20.83C97.28,131.27,92.87,138.52,92.87,152.1z"/>
			<path class="st0" d="M146.03,136.59c4.41-5.32,9.73-8.54,15.69-8.54c10.28,0,14.13,5.78,14.13,15.05v22.95     c0,5.78,0.46,6.61,5.14,6.61v2.57h-17.62v-2.57c4.96,0,5.32-0.64,5.32-6.79v-22.49c0-8.54-2.85-11.56-8.99-11.56     c-4.5,0-9.36,3.76-13.68,9.45v24.69c0,6.06,0.18,6.7,5.14,6.7v2.57h-18.36v-2.57c5.6,0,6.06-0.55,6.06-6.79v-24.78     c0-5.97-0.55-6.61-6.06-6.52v-2.2c4.68-0.83,8.17-1.93,11.56-4.31l1.1,0.64l0.37,7.89H146.03z"/>
			<path class="st0" d="M188.19,162.38c2.29,8.54,6.7,10.83,13.22,10.83c7.8,0,11.84-4.59,11.84-9.09c0-2.11-0.73-3.67-2.02-5.14     c-2.02-2.02-5.69-3.21-10.74-5.69c-4.13-2.39-8.08-3.85-10.65-6.52c-1.65-2.02-2.75-4.5-2.75-7.53c0-5.87,5.14-11.2,16.7-11.2     c4.96,0,8.81,0.83,12.3,2.2c0.37,2.57,0.83,5.6,1.65,9.64l-2.75,0.55c-1.47-7.34-4.41-9.18-10.74-9.18     c-3.67,0-10.28,1.56-10.28,6.88c0,2.39,1.74,4.68,4.22,6.24c3.3,1.74,8.54,3.3,10.65,4.68c5.87,2.66,11.84,7.16,11.84,13.68     c0,8.81-8.63,13.58-18.63,13.58c-6.33,0-10.65-1.1-14.5-2.85c-0.64-4.04-1.38-7.25-2.02-10.37L188.19,162.38z"/>
			<path class="st0" d="M226.82,152.01c0-12.39,5.51-23.96,21.48-23.96c14.13,0,21.39,9.18,21.39,23.96     c0,13.22-4.68,24.32-21.39,24.32C234.07,176.33,226.82,167.98,226.82,152.01z M234.35,152.1c0,18.45,8.17,21.11,13.86,21.11     c11.38,0,13.86-11.01,13.86-21.11c0-13.4-4.31-20.83-13.86-20.83C238.75,131.27,234.35,138.52,234.35,152.1z"/>
			<path class="st0" d="M287.23,135.86h0.18c4.31-5.42,7.62-7.8,12.3-7.8c5.05,0,7.89,3.76,7.89,6.61c0,2.29-1.19,3.58-3.03,3.58     c-1.47,0-2.66-0.92-3.49-3.03c-0.92-2.39-1.65-3.3-3.4-3.3c-3.3,0-6.61,3.49-10.28,8.54v25.52c0,5.97,0.46,6.7,7.16,6.7v2.57     h-20.28v-2.57c5.51,0,5.97-0.64,5.97-6.79V140.9c0-5.78-0.55-6.33-5.97-6.33v-2.2c4.59-0.73,7.98-1.84,11.66-4.31l0.92,0.64     L287.23,135.86z"/>
			<path class="st0" d="M312.5,132.46v-2.39c7.25-0.55,9.45-4.22,11.29-13.77h2.48v12.94h12.48v3.21h-12.48v32.4     c0,5.42,1.93,7.89,5.87,7.89c2.75,0,4.96-0.92,7.53-2.75l1.56,2.29c-3.12,2.75-6.7,4.04-11.01,4.04     c-5.42,0-11.01-2.2-11.01-11.01v-32.86H312.5z"/>
			<path class="st0" d="M348.59,158.53c2.84,11.38,7.25,14.32,15.79,14.32c6.42,0,13.77-4.13,13.77-13.13     c0-8.26-4.68-11.2-14.5-17.35c-5.87-3.76-11.93-7.53-14.23-11.29c-1.56-2.66-2.66-5.78-2.66-9.36c0-6.61,4.59-15.79,19.92-15.79     c5.6,0,10,0.83,14.13,2.48c0.46,3.67,1.29,8.99,2.02,13.49l-3.49,0.64c-1.93-9.73-3.86-12.85-13.03-12.85     c-6.42,0-12.39,3.58-12.39,10.46c0,6.88,3.76,9.45,13.22,15.6c7.16,4.5,12.02,7.16,14.78,10.92c2.2,3.03,3.76,6.61,3.76,11.38     c0,10.37-7.99,18.54-22.03,18.54c-5.14,0-10.83-1.1-15.79-2.85c-0.73-5.97-1.74-10.28-2.75-14.23L348.59,158.53z"/>
			<path class="st0" d="M477.84,110.25c-3.3,0-3.95,0.64-5.32,5.32l-16.71,61.04h-5.23l-16.34-54.79h-0.18l-15.97,54.79h-5.42     l-17.44-60.12c-1.74-5.51-2.39-6.24-5.87-6.24v-2.94h18.08v2.94c-4.04,0-5.42,0.37-5.42,2.39c0,0.92,0.28,2.2,0.73,3.95     l14.23,49.01h0.18l14.78-50.75c-1.65-4.13-1.84-4.59-6.24-4.59v-2.94h18.63v2.94c-3.85,0-5.32,0.37-5.32,2.48     c0,0.92,0.28,2.2,0.83,3.95l14.69,48.92h0.18l13.22-48.37c0.55-2.02,0.83-3.4,0.83-4.5c0-2.11-1.28-2.48-4.86-2.48v-2.94h13.95     V110.25z"/>
			<path class="st0" d="M483.83,175.23v-2.94c6.7,0,7.25-0.55,7.25-7.16v-47.73c0-6.61-0.55-7.16-7.25-7.16v-2.94h24.69     c10.19,0,16.7,2.11,22.03,7.62c5.97,6.33,8.35,15.24,8.35,25.61c0,26.43-13.58,34.69-32.31,34.69H483.83z M501.64,110.98     c-2.39,0-2.84,0.64-2.84,3.85v51.76c0,4.31,0.46,4.96,3.12,4.96h4.41c14.5,0,24.6-8.26,24.6-29.92c0-10.46-1.65-17.9-5.97-23.68     c-3.95-5.14-9.64-6.98-16.8-6.98H501.64z"/>
		</g>
	</g>
	<g>
		<path class="st0" d="M46.2,231.62l8.9,15.83c1.88,3.17,2.52,3.49,4.63,3.49v1.47h-6.15l-9.91-17.89l-3.35,4.27v8.53    c0,3.35,0.23,3.63,3.4,3.63v1.47H32.85v-1.47c3.35,0,3.62-0.28,3.62-3.58V223.5c0-3.3-0.27-3.58-3.62-3.58v-1.47h10.69v1.47    c-2.98,0-3.21,0.32-3.21,3.58v11.98h0.14l9.08-11.7c1.19-1.56,1.88-2.52,1.88-3.12c0-0.55-0.64-0.73-2.06-0.73v-1.47h8.44v1.47    c-1.84,0-2.48,0.23-4.13,2.25L46.2,231.62z"/>
		<path class="st0" d="M61.31,240.8c0-6.19,2.75-11.98,10.74-11.98c7.07,0,10.69,4.59,10.69,11.98c0,6.61-2.34,12.16-10.69,12.16    C64.94,252.96,61.31,248.78,61.31,240.8z M65.07,240.84c0,9.22,4.08,10.55,6.93,10.55c5.69,0,6.93-5.51,6.93-10.55    c0-6.7-2.16-10.42-6.93-10.42C67.28,230.43,65.07,234.05,65.07,240.84z"/>
		<path class="st0" d="M91.8,233.09c2.2-2.66,4.86-4.27,7.85-4.27c5.14,0,7.07,2.89,7.07,7.52v11.47c0,2.89,0.23,3.3,2.57,3.3v1.28    h-8.81v-1.28c2.48,0,2.66-0.32,2.66-3.4v-11.24c0-4.27-1.42-5.78-4.5-5.78c-2.25,0-4.68,1.88-6.84,4.73v12.34    c0,3.03,0.09,3.35,2.57,3.35v1.28h-9.18v-1.28c2.8,0,3.03-0.28,3.03-3.4v-12.39c0-2.98-0.28-3.3-3.03-3.26v-1.1    c2.34-0.41,4.08-0.96,5.78-2.16l0.55,0.32l0.18,3.95H91.8z"/>
		<path class="st0" d="M112.97,245.98c1.15,4.27,3.35,5.41,6.61,5.41c3.9,0,5.92-2.29,5.92-4.54c0-1.06-0.37-1.84-1.01-2.57    c-1.01-1.01-2.84-1.61-5.37-2.85c-2.06-1.19-4.04-1.93-5.32-3.26c-0.83-1.01-1.38-2.25-1.38-3.76c0-2.94,2.57-5.6,8.35-5.6    c2.48,0,4.4,0.41,6.15,1.1c0.18,1.28,0.41,2.8,0.83,4.82l-1.38,0.28c-0.73-3.67-2.2-4.59-5.37-4.59c-1.84,0-5.14,0.78-5.14,3.44    c0,1.19,0.87,2.34,2.11,3.12c1.65,0.87,4.27,1.65,5.32,2.34c2.94,1.33,5.92,3.58,5.92,6.84c0,4.4-4.31,6.79-9.31,6.79    c-3.17,0-5.32-0.55-7.25-1.42c-0.32-2.02-0.69-3.63-1.01-5.19L112.97,245.98z"/>
		<path class="st0" d="M132.4,240.8c0-6.19,2.75-11.98,10.74-11.98c7.07,0,10.69,4.59,10.69,11.98c0,6.61-2.34,12.16-10.69,12.16    C136.03,252.96,132.4,248.78,132.4,240.8z M136.16,240.84c0,9.22,4.08,10.55,6.93,10.55c5.69,0,6.93-5.51,6.93-10.55    c0-6.7-2.16-10.42-6.93-10.42C138.37,230.43,136.16,234.05,136.16,240.84z"/>
		<path class="st0" d="M162.75,232.72h0.09c2.16-2.71,3.81-3.9,6.15-3.9c2.52,0,3.95,1.88,3.95,3.3c0,1.15-0.6,1.79-1.51,1.79    c-0.73,0-1.33-0.46-1.74-1.51c-0.46-1.19-0.83-1.65-1.7-1.65c-1.65,0-3.3,1.74-5.14,4.27v12.76c0,2.98,0.23,3.35,3.58,3.35v1.28    h-10.14v-1.28c2.75,0,2.98-0.32,2.98-3.4v-12.48c0-2.89-0.28-3.17-2.98-3.17v-1.1c2.29-0.37,3.99-0.92,5.83-2.16l0.46,0.32    L162.75,232.72z"/>
		<path class="st0" d="M175.45,231.02v-1.19c3.63-0.27,4.73-2.11,5.64-6.88h1.24v6.47h6.24v1.61h-6.24v16.2    c0,2.71,0.96,3.95,2.94,3.95c1.38,0,2.48-0.46,3.76-1.38l0.78,1.15c-1.56,1.38-3.35,2.02-5.51,2.02c-2.71,0-5.51-1.1-5.51-5.51    v-16.43H175.45z"/>
		<path class="st0" d="M199.34,229.1v18.67c0,2.98,0.18,3.35,3.17,3.35v1.28h-10.14v-1.28c3.17,0,3.4-0.37,3.4-3.4V235.2    c0-3.07-0.18-3.12-3.4-3.12v-1.1c2.66-0.37,4.36-0.96,6.52-2.16L199.34,229.1z M199.57,223.13c0,1.84-1.06,2.89-2.34,2.89    c-1.24,0-2.25-1.06-2.25-2.89s1.01-2.89,2.25-2.89C198.66,220.24,199.57,221.43,199.57,223.13z"/>
		<path class="st0" d="M224.51,247.82c0,3.03,0.18,3.4,2.98,3.4v1.1c-1.56,0-3.85,0-5.96,0.64l-0.32-0.18l-0.23-3.35h-0.14    c-1.56,1.88-4.04,3.53-7.34,3.53c-3.72,0-7.25-1.28-7.25-8.44v-9.36c0-2.84-0.14-3.07-2.66-3.07v-1.1    c2.02-0.37,3.9-0.96,5.74-2.16l0.55,0.28v15.05c0,3.62,0.69,6.84,4.68,6.84c2.43,0,4.54-1.42,6.33-3.85v-11.98    c0-2.89-0.14-3.07-2.66-3.07v-1.1c2.06-0.37,3.9-0.96,5.74-2.16l0.55,0.28V247.82z"/>
		<path class="st0" d="M250.61,232.95c1.88-2.16,4.22-4.13,7.52-4.13c1.79,0,3.58,0.5,4.77,1.88c1.15,1.28,1.74,3.03,1.74,6.15V248    c0,2.8,0.32,3.12,2.62,3.12v1.28h-8.76v-1.28c2.25,0,2.57-0.32,2.57-2.89v-11.06c0-2.39-0.32-6.47-4.04-6.47    c-2.52,0-4.5,1.84-6.1,4.31V248c0,2.84,0.23,3.12,2.57,3.12v1.28h-8.72v-1.28c2.39,0,2.52-0.32,2.52-2.89v-10.92    c0-2.16,0-6.61-3.99-6.61c-2.02,0-3.95,1.56-6.15,4.36v12.89c0,2.84,0.23,3.17,2.66,3.17v1.28h-9.27v-1.28    c2.8,0,3.03-0.32,3.03-3.4v-12.39c0-2.98-0.28-3.3-3.03-3.26v-1.1c2.29-0.41,4.04-0.96,5.83-2.16l0.5,0.32l0.18,3.62h0.05    c1.88-1.97,4.31-3.95,7.16-3.95c3.99,0,5.6,2.16,6.19,4.13H250.61z"/>
		<path class="st0" d="M282.91,251.12c3.26,0,3.49-0.32,3.49-3.44v-16.66h-3.4v-1.61h3.4v-3.35c0-7.39,4.18-9.08,7.2-9.08    c3.72,0,6.01,2.48,6.01,4.31c0,1.06-0.46,1.65-1.42,1.65c-1.24,0-1.65-1.1-2.11-2.2c-0.5-1.06-1.01-2.16-2.43-2.16    c-3.3,0-3.67,4.54-3.67,7.71v3.12h5.64v1.61h-5.64v16.75c0,3.12,0.23,3.35,3.81,3.35v1.28h-10.87V251.12z"/>
		<path class="st0" d="M319.47,247.82c0,3.03,0.18,3.4,2.98,3.4v1.1c-1.56,0-3.85,0-5.96,0.64l-0.32-0.18l-0.23-3.35h-0.14    c-1.56,1.88-4.04,3.53-7.34,3.53c-3.72,0-7.25-1.28-7.25-8.44v-9.36c0-2.84-0.14-3.07-2.66-3.07v-1.1    c2.02-0.37,3.9-0.96,5.74-2.16l0.55,0.28v15.05c0,3.62,0.69,6.84,4.68,6.84c2.43,0,4.54-1.42,6.33-3.85v-11.98    c0-2.89-0.14-3.07-2.66-3.07v-1.1c2.06-0.37,3.9-0.96,5.74-2.16l0.55,0.28V247.82z M308.09,223.04c0,1.1-0.87,2.02-2.02,2.02    c-1.1,0-1.97-0.92-1.97-2.02c0-1.15,0.87-1.97,1.97-1.97C307.36,221.07,308.09,221.98,308.09,223.04z M316.12,223.04    c0,1.1-0.83,2.02-1.97,2.02c-1.1,0-1.97-0.92-1.97-2.02c0-1.15,0.87-1.97,1.97-1.97C315.43,221.07,316.12,221.98,316.12,223.04z"/>
		<path class="st0" d="M331.98,232.72h0.09c2.16-2.71,3.81-3.9,6.15-3.9c2.52,0,3.95,1.88,3.95,3.3c0,1.15-0.6,1.79-1.51,1.79    c-0.73,0-1.33-0.46-1.74-1.51c-0.46-1.19-0.83-1.65-1.7-1.65c-1.65,0-3.3,1.74-5.14,4.27v12.76c0,2.98,0.23,3.35,3.58,3.35v1.28    h-10.14v-1.28c2.75,0,2.98-0.32,2.98-3.4v-12.48c0-2.89-0.27-3.17-2.98-3.17v-1.1c2.29-0.37,3.99-0.92,5.83-2.16l0.46,0.32    L331.98,232.72z"/>
		<path class="st0" d="M374.38,231.34v-8.03c0-2.71-0.23-3.07-2.98-3.07v-1.15c2.62-0.37,4.31-0.92,6.06-2.11l0.5,0.28v31.11    c0,2.66,0.41,2.84,2.75,2.84v1.1c-1.93,0-3.81,0.05-5.69,0.69l-0.37-0.28l-0.14-2.66h-0.09c-1.1,1.24-3.44,2.89-6.84,2.89    c-3.81,0-9.68-2.06-9.68-12.53c0-6.1,3.12-11.61,10.23-11.61c2.94,0,5,1.38,6.15,2.52H374.38z M374.38,233.96    c-1.24-1.84-3.3-3.4-5.64-3.4c-6.56,0-7.02,7.02-7.02,10.23c0,6.56,2.8,10.42,6.7,10.42c2.57,0,4.68-1.74,5.96-3.4V233.96z"/>
		<path class="st0" d="M390.75,229.1v18.67c0,2.98,0.18,3.35,3.17,3.35v1.28h-10.14v-1.28c3.17,0,3.4-0.37,3.4-3.4V235.2    c0-3.07-0.18-3.12-3.4-3.12v-1.1c2.66-0.37,4.36-0.96,6.52-2.16L390.75,229.1z M390.98,223.13c0,1.84-1.06,2.89-2.34,2.89    c-1.24,0-2.25-1.06-2.25-2.89s1.01-2.89,2.25-2.89C390.06,220.24,390.98,221.43,390.98,223.13z"/>
		<path class="st0" d="M406.21,252.96c-6.29,0-10.46-3.9-10.46-12.62c0-5.96,3.3-11.52,9.96-11.52c7.07,0,9.41,6.01,9.41,11.61    h-15.55c0,3.03,0.37,5.64,1.7,7.8c1.19,1.88,3.21,3.03,5.46,3.03c4.13,0,6.33-2.84,7.11-4.45l1.33,0.69    c-2.48,4.5-6.1,5.46-8.72,5.46H406.21z M411.44,238.82c0-2.89-0.73-8.4-5.74-8.4c-2.29,0-5.83,1.65-6.15,8.4H411.44z"/>
		<path class="st0" d="M34.45,299.12c1.42,5.69,3.62,7.16,7.89,7.16c3.21,0,6.88-2.06,6.88-6.56c0-4.13-2.34-5.6-7.25-8.67    c-2.94-1.88-5.96-3.76-7.11-5.64c-0.78-1.33-1.33-2.89-1.33-4.68c0-3.3,2.29-7.89,9.96-7.89c2.8,0,5,0.41,7.07,1.24    c0.23,1.84,0.64,4.5,1.01,6.74l-1.74,0.32c-0.96-4.86-1.93-6.42-6.52-6.42c-3.21,0-6.19,1.79-6.19,5.23c0,3.44,1.88,4.73,6.61,7.8    c3.58,2.25,6.01,3.58,7.39,5.46c1.1,1.51,1.88,3.3,1.88,5.69c0,5.18-3.99,9.27-11.01,9.27c-2.57,0-5.41-0.55-7.89-1.42    c-0.37-2.98-0.87-5.14-1.38-7.11L34.45,299.12z"/>
		<path class="st0" d="M56.65,295.86c0-6.19,2.75-11.98,10.74-11.98c7.07,0,10.69,4.59,10.69,11.98c0,6.61-2.34,12.16-10.69,12.16    C60.28,308.02,56.65,303.85,56.65,295.86z M60.42,295.91c0,9.22,4.08,10.55,6.93,10.55c5.69,0,6.93-5.51,6.93-10.55    c0-6.7-2.16-10.42-6.93-10.42C62.62,285.5,60.42,289.12,60.42,295.91z"/>
		<path class="st0" d="M81.3,290.45l1.06-5.96H98.6l0.55,0.69l-13.99,20.69h8.86c2.48,0,2.98-0.73,3.9-4.68h1.51l-1.1,6.29H80.98    l-0.55-0.78l14.18-20.6h-8.08c-2.66,0-2.94,0.78-3.72,4.36H81.3z"/>
		<path class="st0" d="M109.12,284.16v18.67c0,2.98,0.18,3.35,3.17,3.35v1.28h-10.14v-1.28c3.17,0,3.4-0.37,3.4-3.4v-12.53    c0-3.07-0.18-3.12-3.4-3.12v-1.1c2.66-0.37,4.36-0.96,6.52-2.16L109.12,284.16z M109.35,278.2c0,1.84-1.06,2.89-2.34,2.89    c-1.24,0-2.25-1.06-2.25-2.89s1.01-2.89,2.25-2.89C108.43,275.31,109.35,276.5,109.35,278.2z"/>
		<path class="st0" d="M128.84,290.63c0-3.35-1.28-5.14-4.68-5.14c-2.75,0-4.27,1.33-5.23,3.67c-0.28,0.78-0.73,1.24-1.79,1.24    c-1.01,0-1.47-0.69-1.47-1.47c0-2.06,3.07-5.05,8.72-5.05c4.63,0,8.03,1.56,8.03,7.2v11.79c0,2.29,0.5,3.4,1.56,3.4    c0.55,0,1.01-0.14,1.38-0.37l0.37,1.19c-0.87,0.41-1.79,0.64-3.17,0.64c-1.88,0-2.94-0.87-3.44-2.62h-0.14    c-1.79,1.7-3.95,2.89-7.39,2.89c-3.53,0-6.93-1.88-6.93-5.92c0-2.34,0.87-4.22,3.21-5.69c1.83-1.19,4.4-2.16,7.85-2.89l3.12-0.78    V290.63z M128.84,294.35c-7.85,2.06-10.42,4.18-10.42,7.3c0,2.84,1.74,4.4,4.68,4.4c2.57,0,4.4-1.33,5.74-2.66V294.35z"/>
		<path class="st0" d="M138.37,306.19c3.26,0,3.4-0.37,3.4-3.4v-24.46c0-2.75-0.14-3.03-3.4-3.03v-1.1c2.71-0.41,4.4-0.96,6.52-2.16    l0.41,0.32v30.47c0,2.98,0.18,3.35,3.26,3.35v1.28h-10.19V306.19z"/>
		<path class="st0" d="M150.67,294.95h10.42v2.16h-10.42V294.95z"/>
		<path class="st0" d="M167,307.38c-0.18,0.37-0.73,0.46-1.1,0.46c-0.78,0-1.7-0.69-1.7-2.2c0-1.38,1.01-2.39,2.34-2.39    c1.61,0,2.39,1.28,2.39,3.03c0,3.35-1.88,5.51-3.72,6.74l-0.78-0.92c1.51-1.24,2.57-3.07,2.62-4.73H167z"/>
		<path class="st0" d="M201.28,302.66l7.94-24.18c0.28-0.96,0.46-1.65,0.46-2.16c0-1.1-0.73-1.33-2.57-1.33v-1.47h7.57v1.47    c-1.93,0-2.29,0.41-3.03,2.62l-10.14,30.56h-2.25l-10.55-29.92c-1.01-2.89-1.28-3.26-3.44-3.26v-1.47h9.77v1.47    c-2.02,0-2.75,0.32-2.75,1.33c0,0.55,0.18,1.24,0.5,2.2l8.35,24.13H201.28z"/>
		<path class="st0" d="M224.1,308.02c-6.29,0-10.46-3.9-10.46-12.62c0-5.96,3.3-11.52,9.96-11.52c7.07,0,9.41,6.01,9.41,11.61    h-15.55c0,3.03,0.37,5.64,1.7,7.8c1.19,1.88,3.21,3.03,5.46,3.03c4.13,0,6.33-2.84,7.11-4.45l1.33,0.69    c-2.48,4.5-6.1,5.46-8.72,5.46H224.1z M229.33,293.89c0-2.89-0.73-8.4-5.74-8.4c-2.29,0-5.83,1.65-6.15,8.4H229.33z"/>
		<path class="st0" d="M241.82,287.79h0.09c2.16-2.71,3.81-3.9,6.15-3.9c2.52,0,3.95,1.88,3.95,3.3c0,1.15-0.6,1.79-1.51,1.79    c-0.73,0-1.33-0.46-1.74-1.51c-0.46-1.19-0.83-1.65-1.7-1.65c-1.65,0-3.3,1.74-5.14,4.27v12.76c0,2.98,0.23,3.35,3.58,3.35v1.28    h-10.14v-1.28c2.75,0,2.98-0.32,2.98-3.4v-12.48c0-2.89-0.28-3.17-2.98-3.17v-1.1c2.29-0.37,3.99-0.92,5.83-2.16l0.46,0.32    L241.82,287.79z"/>
		<path class="st0" d="M253.16,306.19c2.8,0,3.03-0.32,3.03-3.4v-24.46c0-2.75-0.32-3.03-2.98-3.03v-1.1    c2.43-0.41,4.18-0.96,6.06-2.16l0.5,0.32v15.65h0.09c2.16-2.52,4.86-4.13,8.03-4.13c6.79,0,6.79,5.78,6.79,8.44v10.51    c0,2.98,0.23,3.35,2.71,3.35v1.28h-9.04v-1.28c2.52,0,2.75-0.32,2.75-3.4v-10.32c0-3.44-0.23-6.7-4.4-6.7    c-2.34,0-4.68,1.93-6.93,4.73v12.34c0,3.03,0.23,3.35,2.57,3.35v1.28h-9.18V306.19z"/>
		<path class="st0" d="M293.95,290.63c0-3.35-1.28-5.14-4.68-5.14c-2.75,0-4.27,1.33-5.23,3.67c-0.28,0.78-0.73,1.24-1.79,1.24    c-1.01,0-1.47-0.69-1.47-1.47c0-2.06,3.07-5.05,8.72-5.05c4.63,0,8.03,1.56,8.03,7.2v11.79c0,2.29,0.5,3.4,1.56,3.4    c0.55,0,1.01-0.14,1.38-0.37l0.37,1.19c-0.87,0.41-1.79,0.64-3.17,0.64c-1.88,0-2.94-0.87-3.44-2.62h-0.14    c-1.79,1.7-3.95,2.89-7.39,2.89c-3.53,0-6.93-1.88-6.93-5.92c0-2.34,0.87-4.22,3.21-5.69c1.83-1.19,4.4-2.16,7.85-2.89l3.12-0.78    V290.63z M293.95,294.35c-7.85,2.06-10.42,4.18-10.42,7.3c0,2.84,1.74,4.4,4.68,4.4c2.57,0,4.4-1.33,5.74-2.66V294.35z"/>
		<path class="st0" d="M303.48,306.19c3.26,0,3.4-0.37,3.4-3.4v-24.46c0-2.75-0.14-3.03-3.4-3.03v-1.1c2.71-0.41,4.4-0.96,6.52-2.16    l0.41,0.32v30.47c0,2.98,0.18,3.35,3.26,3.35v1.28h-10.19V306.19z"/>
		<path class="st0" d="M314.65,286.09v-1.19c3.62-0.27,4.73-2.11,5.64-6.88h1.24v6.47h6.24v1.61h-6.24v16.2    c0,2.71,0.96,3.95,2.94,3.95c1.38,0,2.48-0.46,3.76-1.38l0.78,1.15c-1.56,1.38-3.35,2.02-5.51,2.02c-2.71,0-5.51-1.1-5.51-5.51    v-16.43H314.65z"/>
		<path class="st0" d="M340.67,308.02c-6.29,0-10.46-3.9-10.46-12.62c0-5.96,3.3-11.52,9.96-11.52c7.07,0,9.41,6.01,9.41,11.61    h-15.55c0,3.03,0.37,5.64,1.7,7.8c1.19,1.88,3.21,3.03,5.46,3.03c4.13,0,6.33-2.84,7.11-4.45l1.33,0.69    c-2.48,4.5-6.1,5.46-8.72,5.46H340.67z M345.9,293.89c0-2.89-0.73-8.4-5.74-8.4c-2.29,0-5.83,1.65-6.15,8.4H345.9z"/>
		<path class="st0" d="M358.53,288.16c2.2-2.66,4.86-4.27,7.85-4.27c5.14,0,7.07,2.89,7.07,7.52v11.47c0,2.89,0.23,3.3,2.57,3.3    v1.28h-8.81v-1.28c2.48,0,2.66-0.32,2.66-3.4v-11.24c0-4.27-1.42-5.78-4.5-5.78c-2.25,0-4.68,1.88-6.84,4.73v12.34    c0,3.03,0.09,3.35,2.57,3.35v1.28h-9.18v-1.28c2.8,0,3.03-0.28,3.03-3.4V290.4c0-2.98-0.27-3.3-3.03-3.26v-1.1    c2.34-0.41,4.08-0.96,5.78-2.16l0.55,0.32l0.18,3.95H358.53z"/>
		<path class="st0" d="M379.7,301.05c1.15,4.27,3.35,5.41,6.61,5.41c3.9,0,5.92-2.29,5.92-4.54c0-1.06-0.37-1.84-1.01-2.57    c-1.01-1.01-2.84-1.61-5.37-2.85c-2.06-1.19-4.04-1.93-5.32-3.26c-0.83-1.01-1.38-2.25-1.38-3.76c0-2.94,2.57-5.6,8.35-5.6    c2.48,0,4.41,0.41,6.15,1.1c0.18,1.28,0.41,2.8,0.83,4.82l-1.38,0.28c-0.73-3.67-2.2-4.59-5.37-4.59c-1.83,0-5.14,0.78-5.14,3.44    c0,1.19,0.87,2.34,2.11,3.12c1.65,0.87,4.27,1.65,5.32,2.34c2.94,1.33,5.92,3.58,5.92,6.84c0,4.4-4.31,6.79-9.31,6.79    c-3.17,0-5.32-0.55-7.25-1.42c-0.32-2.02-0.69-3.63-1.01-5.19L379.7,301.05z"/>
		<path class="st0" d="M399.05,294.95h10.42v2.16h-10.42V294.95z"/>
		<path class="st0" d="M415.38,307.38c-0.18,0.37-0.73,0.46-1.1,0.46c-0.78,0-1.7-0.69-1.7-2.2c0-1.38,1.01-2.39,2.34-2.39    c1.61,0,2.39,1.28,2.39,3.03c0,3.35-1.88,5.51-3.72,6.74l-0.78-0.92c1.51-1.24,2.57-3.07,2.62-4.73H415.38z"/>
		<path class="st0" d="M438.33,278.66c0-3.4-0.28-3.67-3.63-3.67v-1.47h11.15c3.9,0,6.42,0.32,8.63,1.97c1.7,1.28,2.8,3.26,2.8,5.64    c0,2.16-0.69,7.07-8.17,8.3v0.09c5.28,0.18,9.77,2.98,9.77,8.31c0,2.8-0.83,5.09-2.48,6.79c-1.74,1.84-4.31,2.84-8.63,2.84H434.7    V306c3.35,0,3.63-0.28,3.63-3.67V278.66z M443.46,275.36c-1.15,0-1.28,0.41-1.28,1.56v11.84h3.21c4.82,0,7.98-2.39,7.98-7.16    c0-3.67-2.02-6.24-6.84-6.24H443.46z M442.18,290.63v12.66c0,1.93,0.28,2.29,1.7,2.29h3.81c5.09,0,7.2-2.8,7.2-7.85    c0-2.25-0.83-4.04-2.25-5.28c-1.38-1.24-3.49-1.84-6.38-1.84H442.18z"/>
		<path class="st0" d="M468.09,284.16v18.67c0,2.98,0.18,3.35,3.17,3.35v1.28h-10.14v-1.28c3.17,0,3.4-0.37,3.4-3.4v-12.53    c0-3.07-0.18-3.12-3.4-3.12v-1.1c2.66-0.37,4.36-0.96,6.52-2.16L468.09,284.16z M468.32,278.2c0,1.84-1.06,2.89-2.34,2.89    c-1.24,0-2.25-1.06-2.25-2.89s1.01-2.89,2.25-2.89C467.4,275.31,468.32,276.5,468.32,278.2z"/>
		<path class="st0" d="M474.07,306.19c3.26,0,3.39-0.37,3.39-3.4v-24.46c0-2.75-0.14-3.03-3.39-3.03v-1.1    c2.71-0.41,4.4-0.96,6.51-2.16l0.41,0.32v30.47c0,2.98,0.18,3.35,3.26,3.35v1.28h-10.19V306.19z"/>
		<path class="st0" d="M502.63,286.41v-8.03c0-2.71-0.23-3.07-2.98-3.07v-1.15c2.62-0.37,4.31-0.92,6.06-2.11l0.5,0.28v31.11    c0,2.66,0.41,2.84,2.75,2.84v1.1c-1.93,0-3.81,0.05-5.69,0.69l-0.37-0.28l-0.14-2.66h-0.09c-1.1,1.24-3.44,2.89-6.84,2.89    c-3.81,0-9.68-2.06-9.68-12.53c0-6.1,3.12-11.61,10.23-11.61c2.94,0,5,1.38,6.15,2.52H502.63z M502.63,289.03    c-1.24-1.84-3.3-3.4-5.64-3.4c-6.56,0-7.02,7.02-7.02,10.23c0,6.56,2.8,10.42,6.7,10.42c2.57,0,4.68-1.74,5.96-3.4V289.03z"/>
		<path class="st0" d="M531.36,302.88c0,3.03,0.18,3.4,2.98,3.4v1.1c-1.56,0-3.85,0-5.96,0.64l-0.32-0.18l-0.23-3.35h-0.14    c-1.56,1.88-4.04,3.53-7.34,3.53c-3.72,0-7.25-1.29-7.25-8.44v-9.36c0-2.84-0.14-3.07-2.66-3.07v-1.1    c2.02-0.37,3.9-0.96,5.74-2.16l0.55,0.28v15.05c0,3.62,0.69,6.84,4.68,6.84c2.43,0,4.54-1.42,6.33-3.85v-11.98    c0-2.89-0.14-3.07-2.66-3.07v-1.1c2.06-0.37,3.9-0.96,5.74-2.16l0.55,0.28V302.88z"/>
		<path class="st0" d="M544.01,288.16c2.2-2.66,4.86-4.27,7.85-4.27c5.14,0,7.07,2.89,7.07,7.52v11.47c0,2.89,0.23,3.3,2.57,3.3    v1.28h-8.81v-1.28c2.48,0,2.66-0.32,2.66-3.4v-11.24c0-4.27-1.42-5.78-4.5-5.78c-2.25,0-4.68,1.88-6.84,4.73v12.34    c0,3.03,0.09,3.35,2.57,3.35v1.28h-9.18v-1.28c2.8,0,3.03-0.28,3.03-3.4V290.4c0-2.98-0.27-3.3-3.03-3.26v-1.1    c2.34-0.41,4.08-0.96,5.78-2.16l0.55,0.32l0.18,3.95H544.01z"/>
		<path class="st0" d="M580.9,286.46c1.61,1.56,2.52,3.49,2.52,5.92c0,5.74-4.41,8.53-9.27,8.53c-1.65,0-3.03-0.27-4.5-0.87    c-1.47,0.92-2.29,1.79-2.29,2.8c0,1.38,1.51,1.97,4.22,1.97h5.14c7.02,0,9.08,3.4,9.08,6.56c0,4.59-4.22,8.4-12.25,8.4    c-6.24,0-10.55-2.06-10.55-6.1c0-3.07,2.71-5.32,5.41-6.47c-1.84-0.37-3.63-1.42-3.63-3.49c0-1.97,1.65-3.26,3.49-4.36    c-2.25-1.42-3.67-3.85-3.67-6.93c0-5.41,4.18-8.53,9.31-8.53c2.29,0,4.08,0.6,5.41,1.33l6.65-0.69v2.16L580.9,286.46z     M570.39,307.7c-2.66,1.61-4.22,3.35-4.22,5.55c0,3.07,3.12,4.96,7.66,4.96c6.15,0,8.95-2.98,8.95-6.01c0-2.11-1.1-4.5-6.47-4.5    H570.39z M579.75,292.38c0-3.53-1.88-6.88-5.78-6.88c-3.72,0-5.74,3.35-5.74,6.88c0,4.08,2.2,6.97,5.83,6.97    C577.82,299.35,579.75,296.32,579.75,292.38z"/>
		<path class="st0" d="M589.44,301.05c1.15,4.27,3.35,5.41,6.61,5.41c3.9,0,5.92-2.29,5.92-4.54c0-1.06-0.37-1.84-1.01-2.57    c-1.01-1.01-2.84-1.61-5.37-2.85c-2.06-1.19-4.04-1.93-5.32-3.26c-0.83-1.01-1.38-2.25-1.38-3.76c0-2.94,2.57-5.6,8.35-5.6    c2.48,0,4.41,0.41,6.15,1.1c0.18,1.28,0.41,2.8,0.83,4.82l-1.38,0.28c-0.73-3.67-2.2-4.59-5.37-4.59c-1.83,0-5.14,0.78-5.14,3.44    c0,1.19,0.87,2.34,2.11,3.12c1.65,0.87,4.27,1.65,5.32,2.34c2.94,1.33,5.92,3.58,5.92,6.84c0,4.4-4.31,6.79-9.31,6.79    c-3.17,0-5.32-0.55-7.25-1.42c-0.32-2.02-0.69-3.63-1.01-5.19L589.44,301.05z"/>
		<path class="st0" d="M608.79,294.95h10.42v2.16h-10.42V294.95z"/>
		<path class="st0" d="M656.38,302.88c0,3.03,0.18,3.4,2.98,3.4v1.1c-1.56,0-3.85,0-5.96,0.64l-0.32-0.18l-0.23-3.35h-0.14    c-1.56,1.88-4.04,3.53-7.34,3.53c-3.72,0-7.25-1.29-7.25-8.44v-9.36c0-2.84-0.14-3.07-2.66-3.07v-1.1    c2.02-0.37,3.9-0.96,5.74-2.16l0.55,0.28v15.05c0,3.62,0.69,6.84,4.68,6.84c2.43,0,4.54-1.42,6.33-3.85v-11.98    c0-2.89-0.14-3.07-2.66-3.07v-1.1c2.06-0.37,3.9-0.96,5.74-2.16l0.55,0.28V302.88z"/>
		<path class="st0" d="M669.03,288.16c2.2-2.66,4.86-4.27,7.85-4.27c5.14,0,7.07,2.89,7.07,7.52v11.47c0,2.89,0.23,3.3,2.57,3.3    v1.28h-8.81v-1.28c2.48,0,2.66-0.32,2.66-3.4v-11.24c0-4.27-1.42-5.78-4.5-5.78c-2.25,0-4.68,1.88-6.84,4.73v12.34    c0,3.03,0.09,3.35,2.57,3.35v1.28h-9.18v-1.28c2.8,0,3.03-0.28,3.03-3.4V290.4c0-2.98-0.27-3.3-3.03-3.26v-1.1    c2.34-0.41,4.08-0.96,5.78-2.16l0.55,0.32l0.18,3.95H669.03z"/>
		<path class="st0" d="M705.01,286.41v-8.03c0-2.71-0.23-3.07-2.98-3.07v-1.15c2.62-0.37,4.31-0.92,6.06-2.11l0.5,0.28v31.11    c0,2.66,0.41,2.84,2.75,2.84v1.1c-1.93,0-3.81,0.05-5.69,0.69l-0.37-0.28l-0.14-2.66h-0.09c-1.1,1.24-3.44,2.89-6.84,2.89    c-3.81,0-9.68-2.06-9.68-12.53c0-6.1,3.12-11.61,10.23-11.61c2.94,0,5,1.38,6.15,2.52H705.01z M705.01,289.03    c-1.24-1.84-3.3-3.4-5.64-3.4c-6.56,0-7.02,7.02-7.02,10.23c0,6.56,2.8,10.42,6.7,10.42c2.57,0,4.68-1.74,5.96-3.4V289.03z"/>
		<path class="st0" d="M76.07,330.06c-1.65,0-1.97,0.32-2.66,2.66l-8.35,30.51h-2.62l-8.17-27.39h-0.09l-7.98,27.39h-2.71    l-8.72-30.05c-0.87-2.75-1.19-3.12-2.94-3.12v-1.47h9.04v1.47c-2.02,0-2.71,0.18-2.71,1.19c0,0.46,0.14,1.1,0.37,1.97l7.11,24.5    h0.09l7.39-25.37c-0.83-2.06-0.92-2.29-3.12-2.29v-1.47h9.31v1.47c-1.93,0-2.66,0.18-2.66,1.24c0,0.46,0.14,1.1,0.41,1.97    l7.34,24.46h0.09l6.61-24.18c0.28-1.01,0.41-1.7,0.41-2.25c0-1.06-0.64-1.24-2.43-1.24v-1.47h6.97V330.06z"/>
		<path class="st0" d="M83.61,339.23v18.67c0,2.98,0.18,3.35,3.17,3.35v1.29H76.63v-1.29c3.17,0,3.4-0.37,3.4-3.39v-12.53    c0-3.07-0.18-3.12-3.4-3.12v-1.1c2.66-0.37,4.36-0.96,6.52-2.16L83.61,339.23z M83.84,333.27c0,1.83-1.06,2.89-2.34,2.89    c-1.24,0-2.25-1.06-2.25-2.89s1.01-2.89,2.25-2.89C82.92,330.38,83.84,331.57,83.84,333.27z"/>
		<path class="st0" d="M96.12,342.86h0.09c2.16-2.71,3.81-3.9,6.15-3.9c2.52,0,3.95,1.88,3.95,3.3c0,1.15-0.6,1.79-1.51,1.79    c-0.73,0-1.33-0.46-1.74-1.51c-0.46-1.19-0.83-1.65-1.7-1.65c-1.65,0-3.3,1.74-5.14,4.27v12.76c0,2.98,0.23,3.35,3.58,3.35v1.29    H89.65v-1.29c2.75,0,2.98-0.32,2.98-3.39v-12.48c0-2.89-0.28-3.17-2.98-3.17v-1.1c2.29-0.37,3.99-0.92,5.83-2.16l0.46,0.32    L96.12,342.86z"/>
		<path class="st0" d="M108.82,341.16v-1.19c3.63-0.28,4.73-2.11,5.64-6.88h1.24v6.47h6.24v1.61h-6.24v16.2    c0,2.71,0.96,3.95,2.94,3.95c1.38,0,2.48-0.46,3.76-1.38l0.78,1.15c-1.56,1.38-3.35,2.02-5.51,2.02c-2.71,0-5.51-1.1-5.51-5.51    v-16.43H108.82z"/>
		<path class="st0" d="M126.53,356.12c1.15,4.27,3.35,5.41,6.61,5.41c3.9,0,5.92-2.29,5.92-4.54c0-1.06-0.37-1.83-1.01-2.57    c-1.01-1.01-2.84-1.61-5.37-2.84c-2.06-1.19-4.04-1.93-5.32-3.26c-0.83-1.01-1.38-2.25-1.38-3.76c0-2.94,2.57-5.6,8.35-5.6    c2.48,0,4.4,0.41,6.15,1.1c0.18,1.28,0.41,2.8,0.83,4.82l-1.38,0.28c-0.73-3.67-2.2-4.59-5.37-4.59c-1.84,0-5.14,0.78-5.14,3.44    c0,1.19,0.87,2.34,2.11,3.12c1.65,0.87,4.27,1.65,5.32,2.34c2.94,1.33,5.92,3.58,5.92,6.84c0,4.41-4.31,6.79-9.31,6.79    c-3.17,0-5.32-0.55-7.25-1.42c-0.32-2.02-0.69-3.62-1.01-5.18L126.53,356.12z"/>
		<path class="st0" d="M164.67,358.14c-1.24,1.97-3.53,4.96-8.44,4.96c-7.39,0-10.32-5.87-10.32-12.21    c0-6.88,4.08-11.93,10.55-11.93c4.59,0,7.62,2.52,7.62,4.77c0,1.01-0.46,1.65-1.33,1.65c-1.1,0-1.56-0.92-2.39-2.57    c-0.69-1.33-1.79-2.25-3.85-2.25c-3.44,0-6.79,3.35-6.79,10.37c0,7.48,3.35,10.42,7.16,10.42c3.07,0,4.86-1.51,6.52-3.99    L164.67,358.14z"/>
		<path class="st0" d="M166.66,361.26c2.8,0,3.03-0.32,3.03-3.39v-24.46c0-2.75-0.32-3.03-2.98-3.03v-1.1    c2.43-0.41,4.18-0.96,6.06-2.16l0.5,0.32v15.65h0.09c2.16-2.52,4.86-4.13,8.03-4.13c6.79,0,6.79,5.78,6.79,8.44v10.51    c0,2.98,0.23,3.35,2.71,3.35v1.29h-9.04v-1.29c2.52,0,2.75-0.32,2.75-3.39v-10.32c0-3.44-0.23-6.7-4.4-6.7    c-2.34,0-4.68,1.93-6.93,4.73v12.34c0,3.03,0.23,3.35,2.57,3.35v1.29h-9.18V361.26z"/>
		<path class="st0" d="M207.46,345.7c0-3.35-1.28-5.14-4.68-5.14c-2.75,0-4.27,1.33-5.23,3.67c-0.28,0.78-0.73,1.24-1.79,1.24    c-1.01,0-1.47-0.69-1.47-1.47c0-2.06,3.07-5.05,8.72-5.05c4.63,0,8.03,1.56,8.03,7.2v11.79c0,2.29,0.5,3.39,1.56,3.39    c0.55,0,1.01-0.14,1.38-0.37l0.37,1.19c-0.87,0.41-1.79,0.64-3.17,0.64c-1.88,0-2.94-0.87-3.44-2.62h-0.14    c-1.79,1.7-3.95,2.89-7.39,2.89c-3.53,0-6.93-1.88-6.93-5.92c0-2.34,0.87-4.22,3.21-5.69c1.83-1.19,4.4-2.16,7.85-2.89l3.12-0.78    V345.7z M207.46,349.42c-7.85,2.07-10.42,4.18-10.42,7.3c0,2.84,1.74,4.4,4.68,4.4c2.57,0,4.4-1.33,5.74-2.66V349.42z"/>
		<path class="st0" d="M217.03,361.26c3.26,0,3.49-0.32,3.49-3.44v-16.66h-3.4v-1.61h3.4v-3.35c0-7.39,4.18-9.08,7.2-9.08    c3.72,0,6.01,2.48,6.01,4.31c0,1.05-0.46,1.65-1.42,1.65c-1.24,0-1.65-1.1-2.11-2.2c-0.5-1.06-1.01-2.16-2.43-2.16    c-3.3,0-3.67,4.54-3.67,7.71v3.12h5.64v1.61h-5.64v16.75c0,3.12,0.23,3.35,3.81,3.35v1.29h-10.87V361.26z"/>
		<path class="st0" d="M232.56,341.16v-1.19c3.63-0.28,4.73-2.11,5.64-6.88h1.24v6.47h6.24v1.61h-6.24v16.2    c0,2.71,0.96,3.95,2.94,3.95c1.38,0,2.48-0.46,3.76-1.38l0.78,1.15c-1.56,1.38-3.35,2.02-5.51,2.02c-2.71,0-5.51-1.1-5.51-5.51    v-16.43H232.56z"/>
		<path class="st0" d="M250.26,356.12c1.15,4.27,3.35,5.41,6.61,5.41c3.9,0,5.92-2.29,5.92-4.54c0-1.06-0.37-1.83-1.01-2.57    c-1.01-1.01-2.84-1.61-5.37-2.84c-2.06-1.19-4.04-1.93-5.32-3.26c-0.83-1.01-1.38-2.25-1.38-3.76c0-2.94,2.57-5.6,8.35-5.6    c2.48,0,4.4,0.41,6.15,1.1c0.18,1.28,0.41,2.8,0.83,4.82l-1.38,0.28c-0.73-3.67-2.2-4.59-5.37-4.59c-1.84,0-5.14,0.78-5.14,3.44    c0,1.19,0.87,2.34,2.11,3.12c1.65,0.87,4.27,1.65,5.32,2.34c2.94,1.33,5.92,3.58,5.92,6.84c0,4.41-4.31,6.79-9.31,6.79    c-3.17,0-5.32-0.55-7.25-1.42c-0.32-2.02-0.69-3.62-1.01-5.18L250.26,356.12z"/>
		<path class="st0" d="M302.01,340.84c-1.33,0-1.74,0.28-2.39,2.25l-6.56,20.05h-2.02l-5.51-17.85h-0.09l-5.74,17.85h-2.02    l-6.65-19.09c-1.06-3.03-1.33-3.21-3.03-3.21v-1.28h8.3v1.28c-1.65,0-2.29,0.23-2.29,1.06c0,0.41,0.14,0.92,0.37,1.61l5,14.77    h0.14l4.96-15.65l-0.32-0.96c-0.32-0.73-0.73-0.83-2.57-0.83v-1.28h8.44v1.28c-1.65,0-2.29,0.14-2.29,1.01    c0,0.32,0.09,0.78,0.28,1.42l4.73,15.05h0.14l5.05-15.69c0.09-0.32,0.18-0.6,0.18-0.83c0-0.69-0.6-0.96-2.25-0.96v-1.28h6.15    V340.84z"/>
		<path class="st0" d="M311.8,339.23v18.67c0,2.98,0.18,3.35,3.17,3.35v1.29h-10.14v-1.29c3.17,0,3.4-0.37,3.4-3.39v-12.53    c0-3.07-0.18-3.12-3.4-3.12v-1.1c2.66-0.37,4.36-0.96,6.52-2.16L311.8,339.23z M312.03,333.27c0,1.83-1.06,2.89-2.34,2.89    c-1.24,0-2.25-1.06-2.25-2.89s1.01-2.89,2.25-2.89C311.11,330.38,312.03,331.57,312.03,333.27z"/>
		<path class="st0" d="M318.61,356.12c1.15,4.27,3.35,5.41,6.61,5.41c3.9,0,5.92-2.29,5.92-4.54c0-1.06-0.37-1.83-1.01-2.57    c-1.01-1.01-2.84-1.61-5.37-2.84c-2.06-1.19-4.04-1.93-5.32-3.26c-0.83-1.01-1.38-2.25-1.38-3.76c0-2.94,2.57-5.6,8.35-5.6    c2.48,0,4.41,0.41,6.15,1.1c0.18,1.28,0.41,2.8,0.83,4.82l-1.38,0.28c-0.73-3.67-2.2-4.59-5.37-4.59c-1.83,0-5.14,0.78-5.14,3.44    c0,1.19,0.87,2.34,2.11,3.12c1.65,0.87,4.27,1.65,5.32,2.34c2.94,1.33,5.92,3.58,5.92,6.84c0,4.41-4.31,6.79-9.31,6.79    c-3.17,0-5.32-0.55-7.25-1.42c-0.32-2.02-0.69-3.62-1.01-5.18L318.61,356.12z"/>
		<path class="st0" d="M339.23,356.12c1.15,4.27,3.35,5.41,6.61,5.41c3.9,0,5.92-2.29,5.92-4.54c0-1.06-0.37-1.83-1.01-2.57    c-1.01-1.01-2.84-1.61-5.37-2.84c-2.06-1.19-4.04-1.93-5.32-3.26c-0.83-1.01-1.38-2.25-1.38-3.76c0-2.94,2.57-5.6,8.35-5.6    c2.48,0,4.41,0.41,6.15,1.1c0.18,1.28,0.41,2.8,0.83,4.82l-1.38,0.28c-0.73-3.67-2.2-4.59-5.37-4.59c-1.83,0-5.14,0.78-5.14,3.44    c0,1.19,0.87,2.34,2.11,3.12c1.65,0.87,4.27,1.65,5.32,2.34c2.94,1.33,5.92,3.58,5.92,6.84c0,4.41-4.31,6.79-9.31,6.79    c-3.17,0-5.32-0.55-7.25-1.42c-0.32-2.02-0.69-3.62-1.01-5.18L339.23,356.12z"/>
		<path class="st0" d="M369.07,363.09c-6.29,0-10.46-3.9-10.46-12.62c0-5.96,3.3-11.52,9.96-11.52c7.07,0,9.41,6.01,9.41,11.61    h-15.55c0,3.03,0.37,5.64,1.7,7.8c1.19,1.88,3.21,3.03,5.46,3.03c4.13,0,6.33-2.84,7.11-4.45l1.33,0.69    c-2.48,4.5-6.1,5.46-8.72,5.46H369.07z M374.3,348.96c0-2.89-0.73-8.4-5.74-8.4c-2.29,0-5.83,1.65-6.15,8.4H374.3z"/>
		<path class="st0" d="M386.93,343.23c2.2-2.66,4.86-4.27,7.85-4.27c5.14,0,7.07,2.89,7.07,7.52v11.47c0,2.89,0.23,3.3,2.57,3.3    v1.29h-8.81v-1.29c2.48,0,2.66-0.32,2.66-3.39v-11.24c0-4.27-1.42-5.78-4.5-5.78c-2.25,0-4.68,1.88-6.84,4.73v12.34    c0,3.03,0.09,3.35,2.57,3.35v1.29h-9.18v-1.29c2.8,0,3.03-0.27,3.03-3.39v-12.39c0-2.98-0.27-3.3-3.03-3.26v-1.1    c2.34-0.41,4.08-0.96,5.78-2.16l0.55,0.32l0.18,3.95H386.93z"/>
		<path class="st0" d="M408.1,356.12c1.15,4.27,3.35,5.41,6.61,5.41c3.9,0,5.92-2.29,5.92-4.54c0-1.06-0.37-1.83-1.01-2.57    c-1.01-1.01-2.84-1.61-5.37-2.84c-2.06-1.19-4.04-1.93-5.32-3.26c-0.83-1.01-1.38-2.25-1.38-3.76c0-2.94,2.57-5.6,8.35-5.6    c2.48,0,4.41,0.41,6.15,1.1c0.18,1.28,0.41,2.8,0.83,4.82l-1.38,0.28c-0.73-3.67-2.2-4.59-5.37-4.59c-1.83,0-5.14,0.78-5.14,3.44    c0,1.19,0.87,2.34,2.11,3.12c1.65,0.87,4.27,1.65,5.32,2.34c2.94,1.33,5.92,3.58,5.92,6.84c0,4.41-4.31,6.79-9.31,6.79    c-3.17,0-5.32-0.55-7.25-1.42c-0.32-2.02-0.69-3.62-1.01-5.18L408.1,356.12z"/>
		<path class="st0" d="M446.25,358.14c-1.24,1.97-3.53,4.96-8.44,4.96c-7.39,0-10.32-5.87-10.32-12.21    c0-6.88,4.08-11.93,10.55-11.93c4.59,0,7.62,2.52,7.62,4.77c0,1.01-0.46,1.65-1.33,1.65c-1.1,0-1.56-0.92-2.39-2.57    c-0.69-1.33-1.79-2.25-3.85-2.25c-3.44,0-6.79,3.35-6.79,10.37c0,7.48,3.35,10.42,7.16,10.42c3.07,0,4.86-1.51,6.51-3.99    L446.25,358.14z"/>
		<path class="st0" d="M448.24,361.26c2.8,0,3.03-0.32,3.03-3.39v-24.46c0-2.75-0.32-3.03-2.98-3.03v-1.1    c2.43-0.41,4.18-0.96,6.06-2.16l0.5,0.32v15.65h0.09c2.16-2.52,4.86-4.13,8.03-4.13c6.79,0,6.79,5.78,6.79,8.44v10.51    c0,2.98,0.23,3.35,2.71,3.35v1.29h-9.04v-1.29c2.52,0,2.75-0.32,2.75-3.39v-10.32c0-3.44-0.23-6.7-4.4-6.7    c-2.34,0-4.68,1.93-6.93,4.73v12.34c0,3.03,0.23,3.35,2.57,3.35v1.29h-9.18V361.26z"/>
		<path class="st0" d="M489.03,345.7c0-3.35-1.29-5.14-4.68-5.14c-2.75,0-4.27,1.33-5.23,3.67c-0.28,0.78-0.73,1.24-1.79,1.24    c-1.01,0-1.47-0.69-1.47-1.47c0-2.06,3.07-5.05,8.72-5.05c4.63,0,8.03,1.56,8.03,7.2v11.79c0,2.29,0.5,3.39,1.56,3.39    c0.55,0,1.01-0.14,1.38-0.37l0.37,1.19c-0.87,0.41-1.79,0.64-3.17,0.64c-1.88,0-2.94-0.87-3.44-2.62h-0.14    c-1.79,1.7-3.95,2.89-7.39,2.89c-3.53,0-6.93-1.88-6.93-5.92c0-2.34,0.87-4.22,3.21-5.69c1.84-1.19,4.41-2.16,7.85-2.89l3.12-0.78    V345.7z M489.03,349.42c-7.85,2.07-10.42,4.18-10.42,7.3c0,2.84,1.74,4.4,4.68,4.4c2.57,0,4.4-1.33,5.74-2.66V349.42z"/>
		<path class="st0" d="M498.61,361.26c3.26,0,3.49-0.32,3.49-3.44v-16.66h-3.4v-1.61h3.4v-3.35c0-7.39,4.18-9.08,7.2-9.08    c3.72,0,6.01,2.48,6.01,4.31c0,1.05-0.46,1.65-1.42,1.65c-1.24,0-1.65-1.1-2.11-2.2c-0.5-1.06-1.01-2.16-2.43-2.16    c-3.3,0-3.67,4.54-3.67,7.71v3.12h5.64v1.61h-5.64v16.75c0,3.12,0.23,3.35,3.81,3.35v1.29h-10.87V361.26z"/>
		<path class="st0" d="M514.13,341.16v-1.19c3.62-0.28,4.73-2.11,5.64-6.88h1.24v6.47h6.24v1.61h-6.24v16.2    c0,2.71,0.96,3.95,2.94,3.95c1.38,0,2.48-0.46,3.76-1.38l0.78,1.15c-1.56,1.38-3.35,2.02-5.51,2.02c-2.71,0-5.51-1.1-5.51-5.51    v-16.43H514.13z"/>
		<path class="st0" d="M540.16,363.09c-6.29,0-10.46-3.9-10.46-12.62c0-5.96,3.3-11.52,9.96-11.52c7.07,0,9.41,6.01,9.41,11.61    H533.5c0,3.03,0.37,5.64,1.7,7.8c1.19,1.88,3.21,3.03,5.46,3.03c4.13,0,6.33-2.84,7.11-4.45l1.33,0.69    c-2.48,4.5-6.1,5.46-8.72,5.46H540.16z M545.39,348.96c0-2.89-0.73-8.4-5.74-8.4c-2.29,0-5.83,1.65-6.15,8.4H545.39z"/>
		<path class="st0" d="M558.01,343.23c2.2-2.66,4.86-4.27,7.85-4.27c5.14,0,7.07,2.89,7.07,7.52v11.47c0,2.89,0.23,3.3,2.57,3.3    v1.29h-8.81v-1.29c2.48,0,2.66-0.32,2.66-3.39v-11.24c0-4.27-1.42-5.78-4.5-5.78c-2.25,0-4.68,1.88-6.84,4.73v12.34    c0,3.03,0.09,3.35,2.57,3.35v1.29h-9.18v-1.29c2.8,0,3.03-0.27,3.03-3.39v-12.39c0-2.98-0.27-3.3-3.03-3.26v-1.1    c2.34-0.41,4.08-0.96,5.78-2.16l0.55,0.32l0.18,3.95H558.01z"/>
	</g>
	<g>
		
			<rect x="558.69" y="83.23" transform="matrix(0.306 -0.952 0.952 0.306 303.3929 627.7142)" class="st1" width="47.14" height="45.04"/>
		<path class="st0" d="M618.17,23.53l2.06-2.18l15.59,14.71l2.48,7.76l4.51,1.18l-1.83-11.35l-12.15-14.06l2.18-1.99l12.84,14.87    l2.29,13.8c13.64,5.85,17.54,23.96,5.08,37.87c11.85-1.07,19.57,11.31,15.67,22.93c11.94-5.67,24.1-5.89,36.5-0.15    c20.29,10.7,16.39,34.93-9.9,41.62l10.66,22.7l6.38-0.76l0.46,2.9l-8.52,1.18l-12.04-25.45c-2.36,0.36-4.77,0.52-7.22,0.54    l6.11,24.8l6.96-0.08v2.94l-9.32,0.27L680,149.45c-10.57-1.03-18.76-5.31-24.11-12.76l-0.38,40.17l-9.32-0.08l-0.04-3.06    l6.23,0.11l0.5-45.78l-17.27,44.29l-8.64-0.73l0.31-3.02l6.31,0.57l19.61-49.95c-6.57,1.26-12.33-2.63-15.44-8.25l-11.54-5.69    l-23.89,8.52l-4.57-6.36l2.41-1.82l3.31,4.62l22.97-8.18l9.97,4.82c-0.22-0.83-0.36-1.86-0.42-3.06l-11.24-7.72l-17.14,4.39    l1.08-3.34l16.78-4.33l10.55,7.41c0.6-3.04,1.74-6.03,3.59-8.94c-23.84,6.01-35.69-21.27-37.15-44.95    c11.09-3.23,21.93-4.32,32.52-3.09l-1.83-5.66L618.17,23.53z M637.93,51.79c-3.13,0-5.68,2.54-5.68,5.68    c0,3.13,2.54,5.68,5.68,5.68c3.13,0,5.68-2.54,5.68-5.68C643.61,54.33,641.06,51.79,637.93,51.79z M637,54.65    c-1.45,0-2.62,1.17-2.62,2.62c0,1.45,1.17,2.62,2.62,2.62s2.62-1.17,2.62-2.62C639.62,55.83,638.45,54.65,637,54.65z"/>
	</g>
</g>
</svg>